<mxfile host="app.diagrams.net" modified="2022-09-20T14:10:13.170Z" agent="5.0 (Windows NT 10.0; Win64; x64) AppleWebKit/537.36 (KHTML, like Gecko) Chrome/105.0.0.0 Safari/537.36 Edg/105.0.1343.42" etag="s65ZOpMsdbP8VVuj0dbR" version="20.3.3" type="github">
  <diagram id="fVBJYeJ2EN1eqQ9cSzyt" name="Page-1">
    <mxGraphModel dx="1277" dy="571" grid="1" gridSize="10" guides="1" tooltips="1" connect="1" arrows="1" fold="1" page="1" pageScale="1" pageWidth="850" pageHeight="1100" math="0" shadow="0">
      <root>
        <mxCell id="0" />
        <mxCell id="1" parent="0" />
        <mxCell id="vW1l6Xz5C0huHyWlDWNr-2" value="&lt;div style=&quot;text-align: left;&quot;&gt;&lt;span style=&quot;background-color: initial;&quot;&gt;Soal&amp;nbsp;&lt;/span&gt;&lt;/div&gt;&lt;div style=&quot;text-align: left;&quot;&gt;&lt;span style=&quot;background-color: initial;&quot;&gt;Buatlah flowchart dan program untuk tampilan seperti dibawah ini dengan jumlah baris sama dengan nilai &quot;n&quot; yang dimasukkan. Contoh : n = 5&lt;/span&gt;&lt;/div&gt;&lt;div style=&quot;text-align: left;&quot;&gt;&lt;span style=&quot;background-color: initial;&quot;&gt;&amp;nbsp; &amp;nbsp; &amp;nbsp; &amp;nbsp;*&lt;/span&gt;&lt;/div&gt;&lt;div style=&quot;text-align: left;&quot;&gt;&lt;span style=&quot;background-color: initial;&quot;&gt;&amp;nbsp; &amp;nbsp; &amp;nbsp; **&lt;/span&gt;&lt;/div&gt;&lt;div style=&quot;text-align: left;&quot;&gt;&lt;span style=&quot;background-color: initial;&quot;&gt;&amp;nbsp; &amp;nbsp; &amp;nbsp;***&lt;/span&gt;&lt;/div&gt;&lt;div style=&quot;text-align: left;&quot;&gt;&lt;span style=&quot;background-color: initial;&quot;&gt;&amp;nbsp; &amp;nbsp;****&lt;/span&gt;&lt;/div&gt;&lt;div style=&quot;text-align: left;&quot;&gt;&lt;span style=&quot;background-color: initial;&quot;&gt;&amp;nbsp; *****&lt;/span&gt;&lt;/div&gt;" style="text;html=1;strokeColor=none;fillColor=none;align=center;verticalAlign=middle;whiteSpace=wrap;rounded=0;" vertex="1" parent="1">
          <mxGeometry x="40" y="480" width="330" height="200" as="geometry" />
        </mxCell>
        <mxCell id="vW1l6Xz5C0huHyWlDWNr-23" style="edgeStyle=orthogonalEdgeStyle;rounded=0;orthogonalLoop=1;jettySize=auto;html=1;entryX=0.5;entryY=0;entryDx=0;entryDy=0;" edge="1" parent="1" source="vW1l6Xz5C0huHyWlDWNr-3" target="vW1l6Xz5C0huHyWlDWNr-5">
          <mxGeometry relative="1" as="geometry" />
        </mxCell>
        <mxCell id="vW1l6Xz5C0huHyWlDWNr-3" value="mulai" style="strokeWidth=2;html=1;shape=mxgraph.flowchart.terminator;whiteSpace=wrap;" vertex="1" parent="1">
          <mxGeometry x="520" y="210" width="100" height="60" as="geometry" />
        </mxCell>
        <mxCell id="vW1l6Xz5C0huHyWlDWNr-25" style="edgeStyle=orthogonalEdgeStyle;rounded=0;orthogonalLoop=1;jettySize=auto;html=1;exitX=0.5;exitY=1;exitDx=0;exitDy=0;entryX=0.5;entryY=0;entryDx=0;entryDy=0;entryPerimeter=0;" edge="1" parent="1" source="vW1l6Xz5C0huHyWlDWNr-4" target="vW1l6Xz5C0huHyWlDWNr-6">
          <mxGeometry relative="1" as="geometry" />
        </mxCell>
        <mxCell id="vW1l6Xz5C0huHyWlDWNr-4" value="i = 1" style="rounded=1;whiteSpace=wrap;html=1;absoluteArcSize=1;arcSize=14;strokeWidth=2;" vertex="1" parent="1">
          <mxGeometry x="520" y="400" width="100" height="50" as="geometry" />
        </mxCell>
        <mxCell id="vW1l6Xz5C0huHyWlDWNr-24" style="edgeStyle=orthogonalEdgeStyle;rounded=0;orthogonalLoop=1;jettySize=auto;html=1;entryX=0.5;entryY=0;entryDx=0;entryDy=0;" edge="1" parent="1" source="vW1l6Xz5C0huHyWlDWNr-5" target="vW1l6Xz5C0huHyWlDWNr-4">
          <mxGeometry relative="1" as="geometry" />
        </mxCell>
        <mxCell id="vW1l6Xz5C0huHyWlDWNr-5" value="baris" style="html=1;strokeWidth=2;shape=manualInput;whiteSpace=wrap;rounded=1;size=26;arcSize=11;" vertex="1" parent="1">
          <mxGeometry x="500" y="300" width="140" height="60" as="geometry" />
        </mxCell>
        <mxCell id="vW1l6Xz5C0huHyWlDWNr-26" style="edgeStyle=orthogonalEdgeStyle;rounded=0;orthogonalLoop=1;jettySize=auto;html=1;exitX=0.5;exitY=1;exitDx=0;exitDy=0;exitPerimeter=0;entryX=0.5;entryY=0;entryDx=0;entryDy=0;" edge="1" parent="1" source="vW1l6Xz5C0huHyWlDWNr-6" target="vW1l6Xz5C0huHyWlDWNr-21">
          <mxGeometry relative="1" as="geometry" />
        </mxCell>
        <mxCell id="vW1l6Xz5C0huHyWlDWNr-6" value="i &amp;lt;= 1" style="strokeWidth=2;html=1;shape=mxgraph.flowchart.decision;whiteSpace=wrap;" vertex="1" parent="1">
          <mxGeometry x="520" y="480" width="100" height="100" as="geometry" />
        </mxCell>
        <mxCell id="vW1l6Xz5C0huHyWlDWNr-28" style="edgeStyle=orthogonalEdgeStyle;rounded=0;orthogonalLoop=1;jettySize=auto;html=1;exitX=0.5;exitY=1;exitDx=0;exitDy=0;exitPerimeter=0;entryX=0.5;entryY=0;entryDx=0;entryDy=0;entryPerimeter=0;" edge="1" parent="1" source="vW1l6Xz5C0huHyWlDWNr-7" target="vW1l6Xz5C0huHyWlDWNr-8">
          <mxGeometry relative="1" as="geometry" />
        </mxCell>
        <mxCell id="vW1l6Xz5C0huHyWlDWNr-7" value="j&amp;lt;= i" style="strokeWidth=2;html=1;shape=mxgraph.flowchart.decision;whiteSpace=wrap;" vertex="1" parent="1">
          <mxGeometry x="520" y="720" width="100" height="100" as="geometry" />
        </mxCell>
        <mxCell id="vW1l6Xz5C0huHyWlDWNr-8" value="&quot;* &quot;" style="strokeWidth=2;html=1;shape=mxgraph.flowchart.display;whiteSpace=wrap;" vertex="1" parent="1">
          <mxGeometry x="520" y="860" width="100" height="60" as="geometry" />
        </mxCell>
        <mxCell id="vW1l6Xz5C0huHyWlDWNr-27" style="edgeStyle=orthogonalEdgeStyle;rounded=0;orthogonalLoop=1;jettySize=auto;html=1;exitX=0.5;exitY=1;exitDx=0;exitDy=0;entryX=0.5;entryY=0;entryDx=0;entryDy=0;entryPerimeter=0;" edge="1" parent="1" source="vW1l6Xz5C0huHyWlDWNr-21" target="vW1l6Xz5C0huHyWlDWNr-7">
          <mxGeometry relative="1" as="geometry" />
        </mxCell>
        <mxCell id="vW1l6Xz5C0huHyWlDWNr-21" value="j = 1" style="rounded=1;whiteSpace=wrap;html=1;absoluteArcSize=1;arcSize=14;strokeWidth=2;" vertex="1" parent="1">
          <mxGeometry x="520" y="620" width="100" height="60" as="geometry" />
        </mxCell>
      </root>
    </mxGraphModel>
  </diagram>
</mxfile>
